<svg width="25" height="25" viewBox="0 0 25 25" fill="none" xmlns="http://www.w3.org/2000/svg">
<path d="M13 5.44678C17.1421 5.44678 20.5 8.80464 20.5 12.9468C20.5 17.0889 17.1421 20.4468 13 20.4468C8.85786 20.4468 5.5 17.0889 5.5 12.9468" stroke="black" stroke-width="1.5" stroke-linecap="round" stroke-linejoin="round"/>
<path d="M23.942 15.5229C23.7086 16.5166 23.343 17.4745 22.855 18.3709" stroke="black" stroke-width="1.5" stroke-linecap="round" stroke-linejoin="round"/>
<path d="M20.814 21.0308C20.0749 21.7347 19.2501 22.3428 18.359 22.8408" stroke="black" stroke-width="1.5" stroke-linecap="round" stroke-linejoin="round"/>
<path d="M13.993 1.74707C15.0099 1.83716 16.0096 2.06664 16.964 2.42907" stroke="black" stroke-width="1.5" stroke-linecap="round" stroke-linejoin="round"/>
<path d="M19.888 4.06494C20.6976 4.68665 21.4151 5.41994 22.019 6.24294" stroke="black" stroke-width="1.5" stroke-linecap="round" stroke-linejoin="round"/>
<path d="M23.6 9.2002C23.9487 10.1597 24.1555 11.165 24.214 12.1842" stroke="black" stroke-width="1.5" stroke-linecap="round" stroke-linejoin="round"/>
<path d="M15.25 23.9719C9.16106 25.2145 3.21764 21.2858 1.975 15.1969C0.732355 9.10794 4.66106 3.16452 10.75 1.92188" stroke="black" stroke-width="1.5" stroke-linecap="round" stroke-linejoin="round"/>
</svg>
